{"title":"47 Ronin 2013 HDCAM NEW SOURCE XviD - TODE","uid":9495104,"size":1551490954,"categoryP":"video","categoryS":"movies","magnet":"?xt=urn:btih:22b9c12834cbe4ce5b74b8cd829d017c5c327c97&amp;dn=47+Ronin+2013+HDCAM+NEW+SOURCE+XviD+-+TODE&amp;tr=udp%3A%2F%2Ftracker.openbittorrent.com%3A80&amp;tr=udp%3A%2F%2Fopen.demonii.com%3A1337&amp;tr=udp%3A%2F%2Ftracker.coppersurfer.tk%3A6969&amp;tr=udp%3A%2F%2Fexodus.desync.com%3A6969","seeders":27,"leechers":0,"uploader":"xxxlavalxxx","files":-1,"time":1390081469,"description":"\n &lt;a href=&quot;\nhttp://www.imdb.com/title/tt1335975/&quot; rel=&quot;nofollow&quot; target=&quot;_NEW&quot;&gt;\nhttp://www.imdb.com/title/tt1335975/&lt;/a&gt;\n\n\nA band of samurai set out to avenge the death and dishonor of their master at the hands of a ruthless shogun.\n\nDirector: Carl Rinsch\nWriters: Chris Morgan (screenplay), Hossein Amini (screenplay)\nStars: Keanu Reeves, Hiroyuki Sanada, Ko Shibasaki\nGenres: Action | Adventure | Fantasy\nCountry: USA\nLanguage: English | Japanese\n\nThanks : Russian TS\n\nFormat                                   : AVI\nFormat/Info                              : Audio Video Interleave\nFile size                                : 1.39 GiB\nDuration                                 : 1h 48mn\nOverall bit rate                         : 1 840 Kbps\nWriting application                      : VirtualDubMod 1.5.10.2 (build 2540/release)\nWriting library                          : VirtualDub build 32842/release\n\nVideo\nID                                       : 0\nFormat                                   : MPEG-4 Visual\nFormat profile                           : Advanced Simple@L5\nFormat settings, BVOP                    : No\nFormat settings, QPel                    : No\nFormat settings, GMC                     : No warppoints\nFormat settings, Matrix                  : Default (MPEG)\nCodec ID                                 : XVID\nCodec ID/Hint                            : XviD\nDuration                                 : 1h 48mn\nBit rate                                 : 1 509 Kbps\nWidth                                    : 720 pixels\nHeight                                   : 368 pixels\nDisplay aspect ratio                     : 1.957\nFrame rate                               : 29.970 fps\nColor space                              : YUV\nChroma subsampling                       : 4:2:0\nBit depth                                : 8 bits\nScan type                                : Progressive\nCompression mode                         : Lossy\nBits/(Pixel*Frame)                       : 0.190\nStream size                              : 1.14 GiB (82%)\nWriting library                          : XviD 1.3.0.dev55\n\nAudio\nID                                       : 1\nFormat                                   : MPEG Audio\nFormat version                           : Version 1\nFormat profile                           : Layer 3\nMode                                     : Joint stereo\nCodec ID                                 : 55\nCodec ID/Hint                            : MP3\nDuration                                 : 1h 48mn\nBit rate mode                            : Constant\nBit rate                                 : 320 Kbps\nChannel(s)                               : 2 channels\nSampling rate                            : 48.0 KHz\nCompression mode                         : Lossy\nStream size                              : 248 MiB (17%)\nAlignment                                : Aligned on interleaves\nInterleave, duration                     : 33 ms (1.00 video frame)\nInterleave, preload duration             : 504 ms\n\n\n\nscreens\n &lt;a href=&quot;\nhttp://i.imgur.com/dW2YR5N.jpg&quot; rel=&quot;nofollow&quot; target=&quot;_NEW&quot;&gt;\nhttp://i.imgur.com/dW2YR5N.jpg&lt;/a&gt; &lt;a href=&quot;\nhttp://i.imgur.com/kuHe3z6.jpg&quot; rel=&quot;nofollow&quot; target=&quot;_NEW&quot;&gt;\nhttp://i.imgur.com/kuHe3z6.jpg&lt;/a&gt; &lt;a href=&quot;\nhttp://i.imgur.com/7IYPqYT.jpg&quot; rel=&quot;nofollow&quot; target=&quot;_NEW&quot;&gt;\nhttp://i.imgur.com/7IYPqYT.jpg&lt;/a&gt; &lt;a href=&quot;\nhttp://i.imgur.com/DWbqU7t.jpg&quot; rel=&quot;nofollow&quot; target=&quot;_NEW&quot;&gt;\nhttp://i.imgur.com/DWbqU7t.jpg&lt;/a&gt; &lt;a href=&quot;\nhttp://i.imgur.com/BgdmkjW.jpg&quot; rel=&quot;nofollow&quot; target=&quot;_NEW&quot;&gt;\nhttp://i.imgur.com/BgdmkjW.jpg&lt;/a&gt; &lt;a href=&quot;\nhttp://i.imgur.com/chSsaSv.jpg&quot; rel=&quot;nofollow&quot; target=&quot;_NEW&quot;&gt;\nhttp://i.imgur.com/chSsaSv.jpg&lt;/a&gt;","torrent":{"xt":"urn:btih:22b9c12834cbe4ce5b74b8cd829d017c5c327c97","amp;dn":"47+Ronin+2013+HDCAM+NEW+SOURCE+XviD+-+TODE","amp;tr":["udp%3A%2F%2Ftracker.openbittorrent.com%3A80","udp%3A%2F%2Fopen.demonii.com%3A1337","udp%3A%2F%2Ftracker.coppersurfer.tk%3A6969","udp%3A%2F%2Fexodus.desync.com%3A6969"],"infoHash":"22b9c12834cbe4ce5b74b8cd829d017c5c327c97","infoHashBuffer":{"type":"Buffer","data":[34,185,193,40,52,203,228,206,91,116,184,205,130,157,1,124,92,50,124,151]},"announce":[],"urlList":[]}}